<svg width="24" height="24" viewBox="0 0 24 24" fill="none" xmlns="http://www.w3.org/2000/svg">
<path d="M15.0899 3.32998C15.2799 3.32998 15.4699 3.39998 15.6199 3.54998C15.9099 3.83998 15.9099 4.31998 15.6199 4.60998L9.0999 11.13C8.6199 11.61 8.6199 12.39 9.0999 12.87L15.6199 19.39C15.9099 19.68 15.9099 20.16 15.6199 20.45C15.3299 20.74 14.8499 20.74 14.5599 20.45L8.0399 13.93C7.5299 13.42 7.2399 12.73 7.2399 12C7.2399 11.27 7.5199 10.58 8.0399 10.07L14.5599 3.54998C14.7099 3.40998 14.8999 3.32998 15.0899 3.32998Z" fill="#161718"/>
</svg>
