<svg width="46" height="48" viewBox="0 0 46 48" fill="none" xmlns="http://www.w3.org/2000/svg">
<path fill-rule="evenodd" clip-rule="evenodd" d="M18.5627 30.4136C25.3582 30.4136 31.1664 31.5316 31.1664 35.9976C31.1664 40.4636 25.3969 41.6136 18.5627 41.6136C11.7653 41.6136 5.95898 40.5056 5.95898 36.0376C5.95898 31.5696 11.7266 30.4136 18.5627 30.4136Z" stroke="white" stroke-width="1.875" stroke-linecap="round" stroke-linejoin="round"/>
<path fill-rule="evenodd" clip-rule="evenodd" d="M18.5629 24.0395C14.1013 24.0395 10.4834 20.1135 10.4834 15.2695C10.4834 10.4255 14.1013 6.49951 18.5629 6.49951C23.0226 6.49951 26.6405 10.4255 26.6405 15.2695C26.6571 20.0955 23.065 24.0215 18.62 24.0395H18.5629Z" stroke="white" stroke-width="1.875" stroke-linecap="round" stroke-linejoin="round"/>
<path d="M31.2578 21.7631C34.207 21.3131 36.4783 18.5651 36.4839 15.2391C36.4839 11.9611 34.2826 9.24105 31.396 8.72705" stroke="white" stroke-width="1.875" stroke-linecap="round" stroke-linejoin="round"/>
<path d="M35.1484 29.4644C38.0055 29.9264 40.0005 31.0144 40.0005 33.2544C40.0005 34.7964 39.0611 35.7963 37.5432 36.4223" stroke="white" stroke-width="1.875" stroke-linecap="round" stroke-linejoin="round"/>
</svg>
