<svg width="17" height="16" viewBox="0 0 17 16" fill="none" xmlns="http://www.w3.org/2000/svg">
<path d="M2.2002 7.33333C2.2002 4.81917 2.2002 3.5621 2.98124 2.78105C3.7623 2 5.01937 2 7.53353 2H8.86686C11.381 2 12.6381 2 13.4191 2.78105C14.2002 3.5621 14.2002 4.81917 14.2002 7.33333V8.66667C14.2002 11.1808 14.2002 12.4379 13.4191 13.2189C12.6381 14 11.381 14 8.86686 14H7.53353C5.01937 14 3.7623 14 2.98124 13.2189C2.2002 12.4379 2.2002 11.1808 2.2002 8.66667V7.33333Z" stroke="white"/>
<path d="M11.7002 5C11.7002 5.27614 11.4763 5.5 11.2002 5.5C10.9241 5.5 10.7002 5.27614 10.7002 5C10.7002 4.72386 10.9241 4.5 11.2002 4.5C11.4763 4.5 11.7002 4.72386 11.7002 5Z" fill="#33363F" stroke="white"/>
<path d="M8.2002 10C9.30476 10 10.2002 9.10457 10.2002 8C10.2002 6.89543 9.30476 6 8.2002 6C7.09563 6 6.2002 6.89543 6.2002 8C6.2002 9.10457 7.09563 10 8.2002 10Z" stroke="white"/>
</svg>
