<svg width="13" height="12" viewBox="0 0 13 12" fill="none" xmlns="http://www.w3.org/2000/svg">
<g clip-path="url(#clip0_3481_4675)">
<path d="M0.989283 11.481H2.5493C2.76452 11.481 2.93898 11.3065 2.93898 11.0913V4.27249C2.93898 4.05724 2.76452 3.88281 2.5493 3.88281H0.989283C0.77404 3.88281 0.599609 4.05724 0.599609 4.27249V11.0913C0.599609 11.3065 0.77404 11.481 0.989283 11.481Z" fill="white"/>
<path d="M0.989283 2.68394H2.5493C2.76452 2.68394 2.93898 2.50949 2.93898 2.29427V0.908961C2.93898 0.693739 2.76452 0.519287 2.5493 0.519287H0.989283C0.77404 0.519287 0.599609 0.693739 0.599609 0.908961V2.29427C0.599609 2.50949 0.77404 2.68394 0.989283 2.68394Z" fill="white"/>
<path d="M12.0129 4.67359C11.7937 4.38503 11.4705 4.14773 11.0431 3.96173C10.6157 3.77586 10.1439 3.68286 9.62772 3.68286C8.57988 3.68286 7.69199 4.08276 6.96407 4.88271C6.81923 5.04188 6.71392 5.00708 6.71392 4.79184V4.27237C6.71392 4.05712 6.53945 3.88269 6.32422 3.88269H4.93069C4.71545 3.88269 4.54102 4.05712 4.54102 4.27237V11.0912C4.54102 11.3064 4.71547 11.4809 4.93069 11.4809H6.49071C6.70595 11.4809 6.88038 11.3064 6.88038 11.0912V8.71977C6.88038 7.73184 6.94004 7.05468 7.05935 6.68839C7.17862 6.32209 7.39931 6.02796 7.72121 5.80594C8.04315 5.58393 8.40665 5.47286 8.81186 5.47286C9.1282 5.47286 9.39881 5.55058 9.62362 5.70604C9.84842 5.86147 10.0108 6.07921 10.1107 6.35956C10.2106 6.63987 10.2606 7.25731 10.2606 8.21198V11.0912C10.2606 11.3064 10.435 11.4809 10.6502 11.4809H12.2102C12.4255 11.4809 12.5999 11.3064 12.5999 11.0912V7.22954C12.5999 6.54691 12.5569 6.02238 12.4709 5.65609C12.385 5.28979 12.2323 4.96229 12.0129 4.67359Z" fill="white"/>
</g>
<defs>
<clipPath id="clip0_3481_4675">
<rect width="12" height="12" fill="white" transform="translate(0.599609)"/>
</clipPath>
</defs>
</svg>
