<svg width="16" height="16" viewBox="0 0 16 16" fill="none" xmlns="http://www.w3.org/2000/svg">
<path d="M14.1115 4.66675C14.8513 6.36319 14.8513 8.30468 14.1115 10.0011M1.88785 10.0011C1.14806 8.30468 1.14806 6.36319 1.88785 4.66675" stroke="#e94477" stroke-linecap="round" stroke-linejoin="round"/>
<path d="M8.89813 13.3079C8.6572 13.538 8.3352 13.6666 8.00013 13.6666C7.665 13.6666 7.343 13.538 7.10207 13.3079C4.89593 11.188 1.93942 8.81985 3.38122 5.38173C4.16079 3.52277 6.0321 2.33325 8.00013 2.33325C9.96813 2.33325 11.8394 3.52277 12.619 5.38173C14.059 8.81552 11.1097 11.1953 8.89813 13.3079Z" stroke="#e94477"/>
<path d="M10 7.33325C10 8.43785 9.1046 9.33325 8 9.33325C6.8954 9.33325 6 8.43785 6 7.33325C6 6.22869 6.8954 5.33325 8 5.33325C9.1046 5.33325 10 6.22869 10 7.33325Z" stroke="#e94477"/>
</svg>
