<svg width="156" height="66" viewBox="0 0 156 66" fill="none" xmlns="http://www.w3.org/2000/svg">
<g clip-path="url(#clip0_3475_401)">
<path d="M95.7558 33.7408C95.7558 31.1004 95.7016 29.293 95.7656 27.4857C96.0118 20.7434 98.2319 14.7416 102.746 9.6265C103.086 9.24164 103.425 8.85192 103.79 8.48655C104.341 7.93119 104.937 7.86299 105.389 8.28194C105.867 8.72039 105.833 9.266 105.257 9.85546C102.776 12.3984 100.875 15.3116 99.5758 18.6048C98.4288 21.5131 97.8282 24.5335 97.7987 27.6513C97.7642 31.2465 97.7199 34.8369 97.8085 38.4321C97.9464 44.2098 99.8121 49.4223 103.425 53.9772C107.058 58.5517 111.735 61.5866 117.411 63.1163C120.689 63.9981 124.032 64.1199 127.384 63.7642C132.484 63.2284 136.988 61.2115 140.951 58.0353C143.89 55.6823 146.139 52.7545 147.858 49.4223C147.961 49.2275 148.04 49.018 148.158 48.828C148.497 48.2824 149.014 48.0924 149.462 48.3262C150.009 48.6137 150.176 49.1252 149.9 49.7487C149.108 51.5269 148.084 53.1783 146.903 54.7275C142.694 60.2275 137.146 63.7253 130.387 65.2939C126.971 66.088 123.51 66.2 120.005 65.669C113.497 64.6752 108.013 61.8059 103.494 57.1097C99.5216 52.9786 97.1194 48.0778 96.1791 42.4462C95.6475 39.2797 95.7755 36.0889 95.7558 33.7408Z" fill="#e94477"/>
<path d="M144.639 32.8838C144.678 34.0091 144.673 35.3683 144.639 36.7323C144.54 40.8439 143.211 44.5414 140.78 47.8346C137.59 52.146 133.253 54.684 127.981 55.6778C127.144 55.8337 126.292 55.9117 125.45 56.0822C124.948 56.1845 124.476 55.9653 124.052 55.7022C123.708 55.4879 123.713 55.1225 123.801 54.801C123.895 54.4551 124.175 54.2748 124.549 54.231C125.706 54.0897 126.873 54.1189 128.035 53.89C133.189 52.8767 137.152 50.1632 140.017 45.847C141.961 42.9241 142.832 39.6699 142.847 36.1867C142.857 33.7753 142.852 31.3639 142.847 28.9573C142.832 21.6256 138.023 14.7859 131.047 12.3209C124.377 9.95818 118.234 11.0299 112.765 15.4436C109.329 18.2204 107.345 21.9081 106.582 26.2341C106.429 27.0915 106.316 27.9489 106.311 28.816C106.306 31.2274 106.291 33.6389 106.296 36.0454C106.301 39.0804 107.025 41.94 108.467 44.6243C108.561 44.7996 108.634 44.9896 108.733 45.1601C108.994 45.6132 108.866 46.0224 108.457 46.2562C108.009 46.5096 107.532 46.4608 107.222 45.9688C106.567 44.9263 106.075 43.801 105.661 42.6464C104.878 40.4688 104.514 38.223 104.544 35.9042C104.573 33.6048 104.558 31.3054 104.549 29.006C104.529 24.5631 106.025 20.6269 108.718 17.134C111.77 13.1685 115.856 10.7474 120.759 9.72435C122.994 9.25668 125.268 9.29078 127.542 9.62204C131.047 10.1336 134.198 11.4586 136.955 13.6265C140.937 16.7589 143.462 20.7877 144.363 25.7859C144.777 28.0658 144.649 30.3554 144.639 32.8838Z" fill="#e94477"/>
<path d="M152.599 32.031C152.599 33.9065 152.604 35.7772 152.594 37.6527C152.594 38.2325 152.397 38.7245 151.752 38.8414C151.014 38.9778 150.566 38.5394 150.561 37.7063C150.556 34.5398 150.585 31.3733 150.556 28.2068C150.511 23.379 149.389 18.8387 146.824 14.6833C143.826 9.83122 139.75 6.21164 134.424 4.0097C133.435 3.60048 133.228 2.74796 133.971 2.17311C134.35 1.88082 134.719 1.97825 135.113 2.13901C137.767 3.23024 140.213 4.67223 142.409 6.49419C146.16 9.612 148.976 13.4313 150.689 17.9911C151.9 21.2161 152.618 24.5531 152.604 28.0168C152.594 29.3565 152.599 30.6913 152.599 32.031Z" fill="#e94477"/>
<path d="M125.125 0.842552C125.145 1.50021 124.835 1.76815 124.308 1.89968C123.294 2.153 122.25 1.99711 121.221 2.10916C119.021 2.35274 116.904 2.87887 114.837 3.61935C114.162 3.86292 113.705 3.69729 113.458 3.1127C113.227 2.56222 113.404 2.10916 114.044 1.83148C115.861 1.03254 117.8 0.662304 119.735 0.282322C121.197 -0.00510083 122.684 -0.0245871 124.165 0.00951386C124.845 0.0290001 125.13 0.301808 125.125 0.842552Z" fill="#e94477"/>
<path d="M122.274 5.30968C122.205 5.31942 121.851 5.37301 121.487 5.42659C117.554 6.01605 114.585 7.11216 111.504 9.10463C107.482 11.7109 104.243 15.6471 102.47 20.0851C101.929 21.4492 101.579 22.6476 101.255 24.2747C100.925 25.9261 100.944 25.5169 100.915 32.2153C100.885 38.334 100.895 38.9625 101.038 40.0098C101.545 43.7902 102.746 46.8836 105.011 50.2401C105.847 51.4775 106.478 52.2424 107.575 53.3482C109.436 55.2238 111.435 56.6852 113.61 57.7667C115.589 58.7508 117.061 59.2866 119.208 59.8079C120.67 60.1635 121.531 60.261 123.308 60.2853L124.613 60.2999L124.627 60.1392C124.647 59.9297 124.578 59.9053 123.677 59.8664C118.735 59.6423 114.364 58.1077 110.485 55.2335C108.648 53.8695 106.615 51.7406 105.306 49.8017C103.578 47.2393 102.411 44.4527 101.801 41.3982C101.437 39.6006 101.407 38.9089 101.397 33.1409C101.387 29.1511 101.427 27.4558 101.555 26.0772C102.106 20.0364 105.513 14.098 110.568 10.3615C113.005 8.55901 115.348 7.41419 118.336 6.56167C120.025 6.08425 121.034 5.93811 123.348 5.85529C125.031 5.79196 126.39 5.83093 127.591 5.98195C131.883 6.52757 136.023 8.35928 139.405 11.2189C140.07 11.7791 141.251 12.9434 141.872 13.6449C143.088 15.0187 144.239 16.6994 145.022 18.2388C146.125 20.4213 146.991 23.0763 147.301 25.2246C147.459 26.3159 147.483 26.8761 147.528 30.4323C147.602 36.361 147.483 39.4058 147.109 41.33C146.647 43.6879 145.775 46.1383 144.801 47.819C144.441 48.4377 144.407 48.6082 144.618 48.7105C144.682 48.7446 144.761 48.7592 144.791 48.7494C144.929 48.6959 145.775 47.1711 146.125 46.3429C146.656 45.0909 147.277 43.113 147.577 41.7198C148.02 39.6445 148.119 38.032 148.133 32.7999C148.143 26.3548 147.892 24.2308 146.696 20.7574C145.485 17.245 142.905 13.528 139.922 10.9851C137.628 9.02668 134.665 7.33625 132.071 6.49347C130.308 5.92349 128.27 5.47531 126.759 5.32429C126.296 5.28045 122.565 5.26583 122.274 5.30968Z" fill="white"/>
<path d="M137.594 32.0889C137.471 31.8453 137.26 31.6261 136.3 30.7297C135.67 30.1403 134.783 29.3121 134.336 28.8883C133.612 28.2062 131.062 25.8143 127.719 22.6916C125.583 20.6943 124.584 19.7687 124.362 19.5836C124.141 19.4033 124.131 19.4033 123.703 19.4033H123.269L122.999 19.6079C122.846 19.7248 122.058 20.5189 121.246 21.3763C120.429 22.2337 118.775 23.9729 117.559 25.2346C116.348 26.5012 114.517 28.4206 113.488 29.4972C112.459 30.5787 111.376 31.7138 111.076 32.0207C110.342 32.7806 110.224 33.0924 110.49 33.6137C110.633 33.8865 111.228 34.4662 115.216 38.1832C118.996 41.7151 121.694 44.2337 122.693 45.1739C123.643 46.0752 123.934 46.2944 124.146 46.2944C124.2 46.2944 124.244 46.3285 124.244 46.3674C124.244 46.421 124.298 46.4405 124.441 46.4405C124.584 46.4405 124.638 46.421 124.638 46.3723C124.638 46.3333 124.692 46.2895 124.756 46.2749C124.82 46.2603 124.978 46.1434 125.11 46.0167C125.578 45.5636 127.833 43.235 128.97 42.0318C129.605 41.3595 130.565 40.3511 131.111 39.7908C131.658 39.2257 132.608 38.2319 133.228 37.5743C133.848 36.9166 134.843 35.8741 135.443 35.2603C137.836 32.8099 137.909 32.7027 137.594 32.0889ZM134.424 31.743C134.301 31.9184 134.035 32.2058 133.129 33.1411C132.78 33.5065 132.002 34.3152 131.407 34.9388C129.319 37.1407 128.689 37.7984 127.567 38.9578C126.947 39.6057 126.282 40.2975 126.09 40.4972C125.204 41.4326 124.707 41.9148 124.603 41.9392C124.539 41.9587 124.49 41.9977 124.49 42.0366C124.49 42.0805 124.436 42.1048 124.342 42.1048C124.249 42.1048 124.195 42.0805 124.195 42.0366C124.195 42.0025 124.131 41.9587 124.047 41.9441C123.904 41.9148 123.368 41.4618 122.59 40.7116C122.398 40.5264 121.733 39.9029 121.113 39.328C120.493 38.7532 119.73 38.0371 119.42 37.7448C119.11 37.4476 118.342 36.7364 117.721 36.1615C117.101 35.5867 116.314 34.8511 115.974 34.5295C115.634 34.208 114.984 33.5942 114.532 33.1655C114.079 32.7417 113.665 32.3178 113.611 32.2253C113.488 32.0256 113.483 31.6748 113.596 31.4946C113.685 31.3581 114.551 30.4325 115.605 29.3413C115.93 29.0052 116.707 28.1965 117.328 27.5388C117.953 26.8812 118.726 26.0725 119.051 25.7364C119.375 25.4002 120.006 24.7426 120.454 24.2749C120.897 23.8072 121.497 23.1788 121.783 22.8865C122.068 22.5893 122.477 22.1655 122.688 21.9414C123.294 21.2935 123.353 21.2545 123.781 21.2545H124.146L124.426 21.5078C124.83 21.8635 125.982 22.9303 126.681 23.5929C127.006 23.8998 127.793 24.6354 128.428 25.2248C129.063 25.8143 129.826 26.5256 130.127 26.8081C130.422 27.0907 130.944 27.5876 131.283 27.9042C131.623 28.2257 132.45 29.0052 133.12 29.6336C133.789 30.262 134.385 30.8466 134.434 30.9295C134.572 31.1438 134.567 31.5433 134.424 31.743Z" fill="#e94477"/>
<path d="M134.423 31.7434C134.3 31.9187 134.034 32.2062 133.128 33.1415C132.779 33.5069 132.001 34.3156 131.405 34.9391C129.318 37.1411 128.688 37.7987 127.566 38.9582C126.945 39.6061 126.281 40.2978 126.089 40.4976C125.203 41.4329 124.706 41.9152 124.602 41.9396C124.538 41.959 124.489 41.998 124.489 42.037C124.489 42.0808 124.435 42.1052 124.341 42.1052C124.248 42.1052 124.194 42.0808 124.194 42.037C124.194 42.0029 124.13 41.959 124.046 41.9444C123.903 41.9152 123.367 41.4621 122.589 40.7119C122.397 40.5268 121.732 39.9032 121.112 39.3284C120.492 38.7536 119.729 38.0374 119.419 37.7451C119.108 37.448 118.341 36.7367 117.72 36.1619C117.1 35.587 116.312 34.8514 115.973 34.5299C115.633 34.2084 114.983 33.5946 114.53 33.1659C114.077 32.742 113.664 32.3182 113.61 32.2257C113.487 32.0259 113.482 31.6752 113.595 31.4949C113.684 31.3585 114.55 30.4329 115.604 29.3417C115.928 29.0055 116.706 28.1969 117.326 27.5392C117.952 26.8815 118.724 26.0729 119.049 25.7367C119.374 25.4006 120.004 24.7429 120.452 24.2753C120.895 23.8076 121.496 23.1792 121.781 22.8869C122.067 22.5897 122.476 22.1659 122.687 21.9418C123.293 21.2939 123.352 21.2549 123.78 21.2549H124.144L124.425 21.5082C124.829 21.8638 125.981 22.9307 126.68 23.5932C127.004 23.9001 127.792 24.6358 128.427 25.2252C129.062 25.8147 129.825 26.5259 130.125 26.8085C130.421 27.091 130.943 27.5879 131.282 27.9046C131.622 28.2261 132.449 29.0055 133.118 29.634C133.788 30.2624 134.384 30.847 134.433 30.9298C134.571 31.1442 134.566 31.5436 134.423 31.7434Z" fill="white"/>
<path d="M24.2113 50.8108C23.1677 50.7183 22.8624 50.4211 22.828 49.5101C22.8034 48.7745 22.8231 48.0389 22.7098 47.2692C22.3948 48.0876 22.0797 48.906 21.7696 49.7245C21.7401 49.8073 21.7401 49.9047 21.6958 49.9778C21.5973 50.1483 21.5973 50.4455 21.3856 50.4601C21.105 50.4844 21.105 50.1532 21.0214 49.9729C20.5636 48.9889 20.1402 47.9951 19.5839 47.011V50.4747C19.2 50.4308 19.2984 50.2019 19.2984 50.0557C19.2886 48.8281 19.2886 47.6053 19.2984 46.3777C19.2984 46.1731 19.2098 45.9051 19.5692 45.871C19.8547 45.8467 20.0565 45.8808 20.1894 46.2121C20.6029 47.2156 21.0706 48.1997 21.5629 49.2958C21.9173 48.3409 22.2422 47.4641 22.5671 46.592C22.6212 46.4459 22.6852 46.3046 22.7394 46.1585C22.8624 45.8223 23.143 45.8516 23.4138 45.8808C23.719 45.9149 23.6452 46.1633 23.6501 46.3485C23.655 47.3959 23.6501 48.4432 23.655 49.4906C23.6501 49.9583 23.7288 50.4065 24.2113 50.8108Z" fill="#e94477"/>
<path d="M29.0497 48.2328C29.0497 49.743 28.1931 50.6589 26.8099 50.6296C25.7613 50.6053 25.0426 49.7868 24.9343 48.4277C24.8063 46.8444 25.7613 45.6558 27.184 45.7873C28.2768 45.8896 29.0497 46.859 29.0497 48.2328ZM25.8056 48.2426C25.7564 48.7297 25.845 49.2315 26.0715 49.6943C26.2438 50.0353 26.4948 50.3276 26.928 50.3568C27.3612 50.386 27.6812 50.1473 27.8436 49.7917C28.3162 48.7541 28.3556 47.6775 27.8486 46.6496C27.4695 45.8798 26.5883 45.8798 26.1404 46.6106C25.845 47.0977 25.7761 47.6482 25.8056 48.2426Z" fill="#e94477"/>
<path d="M38.5154 50.4701C37.0041 50.7818 36.5119 49.4519 35.5569 48.6432C35.5569 49.1986 35.547 49.6516 35.5618 50.1096C35.5667 50.3824 35.483 50.5139 35.1778 50.5139C34.8775 50.5139 34.7249 50.4457 34.7299 50.1047C34.7446 49.0135 34.7249 47.9222 34.7348 46.831C34.7348 46.4754 34.7545 46.1295 34.2031 45.998C35.3452 45.7349 35.547 45.8859 35.5569 46.8797C35.5569 47.211 35.5569 47.5471 35.5569 47.9661C36.5217 47.3376 36.63 45.6911 38.2151 45.998C37.2897 46.149 36.9106 46.8895 36.4331 47.5276C36.2263 47.8004 36.2067 48.0148 36.4528 48.2827C37.1223 49.0135 37.6441 49.8904 38.5154 50.4701Z" fill="#e94477"/>
<path d="M42.9413 45.9874C42.0011 46.1628 41.6516 46.9471 41.1643 47.5999C40.987 47.8337 40.9477 48.0042 41.1692 48.2283C41.8879 48.9542 42.4195 49.8603 43.3007 50.4546C41.8387 50.8249 41.3316 49.5242 40.4062 48.6911C40.4062 49.2416 40.3963 49.6557 40.4111 50.0649C40.4209 50.3621 40.3323 50.5131 39.9976 50.5131C39.6579 50.518 39.5841 50.3669 39.5841 50.0698C39.5939 49.0662 39.5841 48.0627 39.5841 47.064C39.5841 46.6353 39.5398 46.2261 39.0918 45.9825C40.2092 45.7 40.2388 45.7438 40.4505 47.8824C41.2922 47.2443 41.4547 45.7682 42.9413 45.9874Z" fill="#e94477"/>
<path d="M48.0309 50.4449C47.2285 50.596 46.7608 50.3231 46.5147 49.7093C46.2046 48.925 45.5449 49.4316 45.0625 49.3001C44.6884 49.1978 44.5752 49.4804 44.4669 49.7727C44.3733 50.026 44.3143 50.3183 44.073 50.5034C43.8515 50.3621 43.9451 50.216 43.9992 50.0796C44.5112 48.8032 45.033 47.5317 45.54 46.2554C45.5991 46.1092 45.6188 45.9193 45.8009 45.9095C46.0323 45.8998 46.047 46.1092 46.111 46.2797C46.4605 47.2151 46.8199 48.1456 47.1694 49.0809C47.3565 49.5583 47.4943 50.0552 48.0309 50.4449ZM45.4957 47.2882C45.3382 47.6535 45.1708 47.9604 45.0723 48.2917C45.0182 48.472 44.7622 48.7496 45.0231 48.8568C45.3382 48.9883 45.7221 48.9737 46.0717 48.8617C46.1061 48.8519 46.1307 48.696 46.1012 48.6327C45.9141 48.1991 45.8551 47.7022 45.4957 47.2882Z" fill="#e94477"/>
<path d="M29.6504 50.5718C30.2903 48.9739 30.8663 47.5465 31.4423 46.124C31.4816 46.0315 31.5062 45.895 31.6539 45.9048C31.8558 45.9145 31.8853 46.085 31.9394 46.2263C32.3234 47.2396 32.7221 48.2529 33.0864 49.2759C33.244 49.7144 33.3966 50.1431 33.8494 50.4207C33.0224 50.5766 32.6877 50.4548 32.3923 49.7387C32.0674 48.9593 31.4324 49.4367 30.95 49.3051C30.5316 49.1931 30.4331 49.5098 30.2903 49.7972C30.1722 50.031 30.1968 50.372 29.6504 50.5718ZM31.3635 47.1811C31.1075 47.8144 30.9008 48.3308 30.6891 48.857C31.6441 48.9593 31.9542 48.5988 31.6244 47.7657C31.5604 47.6147 31.4866 47.4637 31.3635 47.1811Z" fill="#e94477"/>
<path d="M48.3467 45.996C49.4149 45.7476 49.6955 45.9278 49.7201 46.8437C49.7496 47.779 49.7398 48.7144 49.7152 49.6497C49.7004 50.0881 49.8579 50.2489 50.2961 50.2245C50.7982 50.1953 51.3101 50.2197 51.8172 50.2976C51.4332 50.6191 50.9852 50.4925 50.5717 50.4973C48.8636 50.512 48.8636 50.5022 48.8636 48.802C48.8636 48.1346 48.8734 47.4624 48.8537 46.795C48.8439 46.4832 48.8833 46.1227 48.3467 45.996Z" fill="#e94477"/>
<path d="M30.9401 11.8768L27.9372 13.7962L27.7846 14.6877C27.7009 15.1797 27.6418 15.5889 27.6468 15.5987C27.6615 15.6181 33.5589 11.8768 33.6623 11.7793C33.6968 11.7501 33.7903 11.3409 33.8691 10.8732C34.0315 9.91841 34.0315 9.95251 33.9823 9.95738C33.9577 9.95738 32.5941 10.8245 30.9401 11.8768Z" fill="white"/>
<path d="M33.5983 13.4409C33.5688 13.4848 33.3226 13.6455 33.0568 13.7966C32.7762 13.9524 32.5399 14.1229 32.4956 14.196C32.4316 14.3081 32.4415 14.3373 32.663 14.6539C33.1109 15.3019 33.2931 15.9352 33.1109 16.2129C32.9633 16.4369 32.599 16.6269 32.3332 16.6269C31.8803 16.6269 31.5652 16.3785 31.2994 15.8231C31.1665 15.5357 31.1369 15.4139 31.1222 15.0291C31.1074 14.7855 31.0828 14.5809 31.0631 14.5809C31.0434 14.5809 30.9647 14.6637 30.8908 14.7611C30.812 14.8634 30.7234 14.9706 30.6841 14.9998C30.6201 15.0534 30.6004 15.1752 30.4773 16.3346C30.3838 17.2018 30.1524 17.6694 29.7094 17.8935C29.5125 17.991 29.3943 18.0153 29.0891 18.0153C28.7544 18.0153 28.6953 18.0007 28.5821 17.8984C28.4295 17.7571 28.3556 17.5233 28.3556 17.1872C28.3556 16.9533 28.4295 16.4028 28.4836 16.2226C28.5328 16.0618 28.4245 16.1446 28.1686 16.4564C27.8732 16.8267 27.7797 17.1141 27.7354 17.7961C27.6221 19.4865 28.4098 20.2952 29.7537 19.8714C29.9555 19.8081 30.2361 19.6765 30.369 19.5791C30.7136 19.3258 31.0828 18.824 31.2649 18.3515L31.4175 17.9569L31.7129 18.1566C31.9984 18.3515 32.0181 18.3563 32.407 18.3563C32.8747 18.3563 33.0913 18.2735 33.3915 17.9764C33.6475 17.723 33.9084 17.1628 33.9921 16.6903C34.125 15.9547 34.061 14.9998 33.8247 14.3276C33.7558 14.1278 33.7361 13.9768 33.7558 13.7917C33.7706 13.6163 33.7558 13.5043 33.7115 13.4458C33.6475 13.3679 33.6377 13.3679 33.5983 13.4409Z" fill="white"/>
<path d="M17.2052 19.993C16.3241 20.1051 15.1771 20.4315 14.6011 20.7335C14.2122 20.9381 13.8184 21.3035 13.6757 21.586L13.5624 21.815L13.5329 33.1901C13.5181 40.7703 13.4738 44.7406 13.4 45.1011C13.0554 46.8597 12.2973 47.6879 10.6925 48.0533C10.092 48.1945 8.63484 48.2335 7.95058 48.1312C5.3071 47.7269 3.76137 45.9585 3.19526 42.6653C3.06235 41.9102 3.01313 40.2198 3.10173 39.3965C3.24449 37.9984 3.60877 36.5564 4.11581 35.3628C4.20934 35.1485 4.27333 34.9682 4.26841 34.9585C4.25857 34.9536 4.09119 35.0218 3.89429 35.1144C2.67838 35.6892 1.73815 36.7171 0.980055 38.276C-0.0537098 40.4147 -0.270308 42.7433 0.345028 45.179C1.08835 48.1312 3.09681 50.3721 5.80429 51.2636C6.97097 51.6485 7.96535 51.7752 9.47661 51.7362C12.1103 51.6582 13.9316 51.1175 15.438 49.9678C17.1659 48.6476 18.0175 46.6113 18.0175 43.815V43.0404L18.4261 43.133C18.6476 43.1817 19.1054 43.284 19.4451 43.3571L20.0604 43.4935H32.6625C46.2048 43.4935 45.6141 43.5032 46.8103 43.2402C49.1239 42.7384 50.5466 41.54 51.1078 39.6206C51.2949 38.9678 51.349 38.4563 51.3785 36.9899C51.4228 34.71 51.2998 33.6432 50.8912 32.6786C50.2512 31.1879 48.9467 30.1697 47.0466 29.6875C45.7716 29.3611 46.1211 29.3757 38.4466 29.3465L31.481 29.3172L32.3425 28.8983C39.318 25.5077 42.2223 24.1193 42.5768 24.0121C43.2955 23.788 43.7976 23.7247 44.6492 23.7539C45.7667 23.7929 46.3722 23.9926 46.889 24.4944C47.0367 24.6356 47.1696 24.7379 47.1795 24.7185C47.1943 24.699 47.2238 24.509 47.2533 24.2995C47.3715 23.3544 47.0761 22.3022 46.4411 21.4155C45.7568 20.4656 44.6295 19.9687 43.1478 19.9736C42.4242 19.9784 41.991 20.0515 41.2033 20.3097C40.844 20.4315 38.0577 21.7517 31.9733 24.6941C27.1835 27.013 23.1666 28.9665 23.0485 29.0347C22.5857 29.2977 22.3937 29.7898 22.4971 30.4669C22.5562 30.8859 22.7433 31.4753 22.9795 31.9868C23.1666 32.3961 23.585 33.0927 23.6392 33.0927C23.6638 33.0927 23.8115 33.0245 23.9739 32.9465L24.2644 32.8004H34.4543C45.5648 32.8004 45.0037 32.7858 45.6288 33.0732C46.2294 33.3411 46.574 33.8088 46.7512 34.6029C46.8694 35.1241 46.8743 37.7255 46.7561 38.2322C46.5149 39.2698 46.126 39.6985 45.1907 39.9616L44.8215 40.0639L33.3763 40.059C27.0801 40.0542 21.3649 40.0347 20.6757 40.0103C19.5337 39.9713 18.9823 39.9129 18.2685 39.7619L18.0175 39.7083V19.9395L17.7861 19.9443C17.6483 19.9492 17.3923 19.9736 17.2052 19.993Z" fill="white"/>
<path d="M80.26 26.0095C78.2909 26.1605 76.9815 26.5454 75.928 27.2859C74.7958 28.0799 74.1411 29.1468 73.8457 30.6765C73.7719 31.0711 73.7621 31.5144 73.7621 34.7491C73.7621 38.6512 73.767 38.7 74.0328 39.6597C74.082 39.8399 74.1165 39.9958 74.1066 40.0055C74.0525 40.0543 71.8816 40.064 70.5623 40.0153C69.3612 39.9714 68.9674 39.9422 68.4603 39.8448C68.1157 39.7814 67.8105 39.7132 67.7859 39.6938C67.7465 39.6743 67.7318 37.6721 67.7318 33.0441V26.4236L67.3724 26.5892C66.0925 27.1641 64.8766 27.1933 62.3907 26.711C60.9434 26.4285 60.2837 26.3554 59.6044 26.3895C57.6255 26.4869 56.1093 27.2372 55.0362 28.6353C54.7211 29.0494 54.3322 29.8191 54.1944 30.316C53.963 31.1539 53.9482 31.3829 53.9482 35.1388C53.9482 37.219 53.9679 38.812 53.9975 39.0117C54.1796 40.254 54.7063 41.3111 55.5678 42.1539C56.6262 43.1915 57.8618 43.7274 59.4961 43.8589C60.6332 43.9515 61.4652 43.781 62.5777 43.2305L63.262 42.8944L63.2423 44.4825C63.2226 46.0463 63.2177 46.0853 63.0897 46.5042C62.7599 47.5711 62.2233 48.1946 61.2092 48.6818C60.9385 48.8133 60.5496 48.9644 60.3477 49.0179C59.1072 49.3541 57.4778 49.3492 56.3948 49.0082C55.9518 48.8669 55.9567 48.8474 56.3751 49.4466C57.3301 50.8253 59.2746 51.7558 61.2092 51.7558C63.1143 51.7606 64.8766 51.064 66.1516 49.8071C66.8801 49.091 67.2838 48.4382 67.5693 47.5175L67.7022 47.0985L67.7219 45.0622C67.7318 43.9466 67.7465 43.0308 67.7564 43.0308C67.7662 43.0308 68.0862 43.1087 68.4702 43.2013C69.6368 43.4838 70.0011 43.5179 71.7684 43.5179C73.5356 43.5179 73.6341 43.5033 74.5202 43.1769C75.293 42.8993 75.8247 42.7823 76.3366 42.7775C76.7649 42.7775 76.8781 42.7969 77.4295 42.9772C78.6995 43.3962 79.9154 43.552 81.5645 43.5033C83.317 43.4497 84.4492 43.2208 85.5814 42.6849C87.1813 41.9298 88.1018 40.6486 88.4071 38.7341C88.4907 38.2372 88.5301 32.6884 88.4612 31.607C88.3529 29.8824 87.9788 28.8984 87.0582 27.9435C86.0934 26.9351 84.7544 26.3457 82.869 26.1021C82.2931 26.029 80.7424 25.9706 80.26 26.0095ZM81.978 29.5122C82.8001 29.6535 83.3564 30.014 83.6271 30.5791C83.9225 31.1929 83.9373 31.3488 83.9619 34.2668C83.9914 37.2726 83.952 38.0423 83.7551 38.622C83.6862 38.8266 83.5779 39.0702 83.5139 39.1725C83.125 39.7863 82.2882 40.1078 81.0919 40.1078C79.4675 40.1078 78.67 39.572 78.3795 38.281C78.3008 37.9303 78.2909 37.5746 78.2909 34.7491C78.2909 31.3049 78.2959 31.2611 78.5912 30.6083C78.7635 30.2234 79.1869 29.8288 79.5807 29.6827C80.2206 29.444 81.1855 29.3758 81.978 29.5122ZM62.3365 29.8045C62.6023 29.8434 62.9075 29.9019 63.0109 29.9263L63.2029 29.9799V34.1597C63.2029 38.6415 63.2078 38.5489 62.9568 39.0361C62.6565 39.6207 61.9575 40.1614 61.2092 40.3807C60.8302 40.4927 60.0671 40.4927 59.7669 40.3855C59.0088 40.103 58.6002 39.421 58.4771 38.2225C58.4377 37.8718 58.4279 36.7367 58.4427 34.8222C58.4623 31.6703 58.4673 31.6021 58.7676 30.9688C59.0531 30.3598 59.5896 29.9604 60.3133 29.8045C60.7317 29.7168 61.7409 29.7168 62.3365 29.8045Z" fill="white"/>
<path d="M153.278 8.31528C152.756 8.31528 152.293 8.19349 151.885 7.94504C151.476 7.69659 151.156 7.36533 150.925 6.9415C150.693 6.52255 150.575 6.05488 150.575 5.53849C150.575 5.01723 150.693 4.54469 150.925 4.12573C151.156 3.70678 151.476 3.37064 151.885 3.12219C152.293 2.87374 152.756 2.75195 153.278 2.75195C153.819 2.75195 154.292 2.87861 154.7 3.12706C155.109 3.37551 155.424 3.71652 155.655 4.14035C155.887 4.56418 156 5.03185 156 5.53849C156 6.05488 155.887 6.52255 155.655 6.9415C155.424 7.36046 155.109 7.69659 154.7 7.94504C154.292 8.19349 153.819 8.31528 153.278 8.31528ZM153.278 7.8671C153.716 7.8671 154.105 7.75992 154.444 7.55045C154.784 7.34097 155.05 7.05842 155.247 6.70767C155.444 6.35691 155.537 5.96719 155.537 5.53849C155.537 5.22184 155.483 4.9198 155.37 4.63238C155.257 4.34983 155.099 4.09651 154.892 3.88703C154.686 3.67268 154.449 3.50705 154.174 3.38526C153.898 3.26347 153.603 3.20014 153.278 3.20014C152.958 3.20014 152.657 3.26347 152.382 3.38526C152.106 3.50705 151.87 3.67268 151.668 3.88703C151.466 4.10138 151.309 4.34983 151.195 4.63238C151.082 4.91493 151.028 5.21697 151.028 5.53849C151.028 5.85514 151.082 6.15718 151.195 6.43973C151.309 6.72228 151.466 6.97073 151.668 7.18021C151.87 7.39456 152.106 7.56019 152.382 7.68198C152.657 7.80864 152.958 7.8671 153.278 7.8671ZM152.146 7.08765V4.00395H153.297C153.662 4.00395 153.947 4.07702 154.149 4.21829C154.351 4.35957 154.459 4.61289 154.459 4.98313C154.459 5.23645 154.425 5.43132 154.351 5.57746C154.277 5.72361 154.144 5.83566 153.947 5.91847L154.513 7.08765H153.864L153.352 6.01103H152.766V7.08765H152.146ZM152.766 5.519H153.352C153.529 5.519 153.662 5.48003 153.74 5.39721C153.824 5.3144 153.864 5.18774 153.864 5.01236C153.864 4.82724 153.814 4.69571 153.716 4.61776C153.617 4.53495 153.455 4.49597 153.238 4.49597H152.766V5.519Z" fill="#e94477"/>
</g>
<defs>
<clipPath id="clip0_3475_401">
<rect width="156" height="66" fill="white"/>
</clipPath>
</defs>
</svg>
