<svg width="16" height="16" viewBox="0 0 16 16" fill="none" xmlns="http://www.w3.org/2000/svg">
<path d="M1.33301 3.33325L5.94169 5.94967C7.62547 6.90559 8.37387 6.90559 10.0577 5.94967L14.6663 3.33325" stroke="#e94477" stroke-width="1.5" stroke-linejoin="round"/>
<path d="M6.99967 13.0001C6.68881 12.996 6.37755 12.9901 6.06556 12.9822C3.96656 12.9295 2.91706 12.9031 2.16298 12.1457C1.40889 11.3883 1.3871 10.3659 1.34352 8.32101C1.32951 7.66348 1.3295 7.00988 1.34351 6.35237C1.3871 4.3075 1.40889 3.28507 2.16297 2.52767C2.91706 1.77028 3.96656 1.7439 6.06555 1.69113C7.35921 1.65861 8.64014 1.65862 9.93381 1.69114C12.0328 1.74391 13.0823 1.77029 13.8363 2.52769C14.5905 3.28507 14.6123 4.30751 14.6558 6.35237C14.6623 6.65509 14.6657 6.79775 14.6663 7.00008" stroke="#e94477" stroke-linecap="round" stroke-linejoin="round"/>
<path d="M12.667 11.3333C12.667 11.8855 12.2193 12.3333 11.667 12.3333C11.1147 12.3333 10.667 11.8855 10.667 11.3333C10.667 10.781 11.1147 10.3333 11.667 10.3333C12.2193 10.3333 12.667 10.781 12.667 11.3333ZM12.667 11.3333V11.6666C12.667 12.2189 13.1147 12.6666 13.667 12.6666C14.2193 12.6666 14.667 12.2189 14.667 11.6666V11.3333C14.667 9.67639 13.3239 8.33325 11.667 8.33325C10.0101 8.33325 8.66699 9.67639 8.66699 11.3333C8.66699 12.9901 10.0101 14.3333 11.667 14.3333" stroke="#e94477" stroke-linecap="round" stroke-linejoin="round"/>
</svg>
