<svg width="16" height="16" viewBox="0 0 16 16" fill="none" xmlns="http://www.w3.org/2000/svg">
<path d="M11.9924 5.1137C11.9924 5.45373 11.9924 5.76285 11.9621 6.10288C11.9621 6.1647 11.9621 6.22652 11.9621 6.25743C11.9621 6.38108 12.0227 6.4429 12.1439 6.41199C12.1742 6.41199 12.2348 6.41199 12.2652 6.41199C12.3864 6.38108 12.5076 6.31926 12.6288 6.28834C12.8106 6.22652 13.0227 6.13379 13.2348 6.07196C13.3864 6.04105 13.5076 6.01014 13.6591 6.07196C13.9924 6.13379 14.1439 6.47381 14.0227 6.78293C13.9924 6.87567 13.9318 6.93749 13.8712 6.99931C13.7803 7.09205 13.6894 7.18478 13.5985 7.2466C13.4773 7.33934 13.3561 7.40116 13.2348 7.4939C13.0227 7.61754 12.8409 7.7721 12.6288 7.89575C12.5379 7.95757 12.4773 8.01939 12.3864 8.08122C12.3561 8.11213 12.2955 8.14304 12.2652 8.20486C12.2045 8.2976 12.1439 8.39033 12.1742 8.51398C12.1742 8.63763 12.1742 8.73036 12.2348 8.8231C12.3258 9.16312 12.4773 9.47224 12.6591 9.78136C12.9924 10.3378 13.4167 10.8014 13.9015 11.2033C14.3258 11.5433 14.7803 11.8215 15.2652 12.0688C15.2955 12.0688 15.3561 12.0997 15.3864 12.1306C15.4167 12.1306 15.447 12.1615 15.4773 12.1925C15.5076 12.2543 15.5076 12.2852 15.4773 12.347C15.4773 12.3779 15.4167 12.4398 15.3864 12.4707C15.3258 12.5016 15.2652 12.5634 15.2045 12.5943C14.9318 12.7489 14.6288 12.8416 14.3258 12.9343C14.2045 12.9652 14.0833 12.9962 13.9318 13.058C13.8409 13.058 13.75 13.1198 13.6894 13.1816C13.5379 13.2435 13.4773 13.3671 13.447 13.5217C13.447 13.6144 13.447 13.7071 13.4167 13.769C13.3864 13.9853 13.2955 14.0472 13.0833 14.109C13.0227 14.109 12.9318 14.109 12.8712 14.109C12.6894 14.109 12.5076 14.109 12.3258 14.109C11.9015 14.109 11.5076 14.2017 11.0833 14.3254C10.9015 14.3872 10.75 14.449 10.5985 14.5417C10.447 14.6345 10.2652 14.7272 10.1136 14.8509C9.87121 15.0054 9.59848 15.16 9.32576 15.2836C9.02273 15.4073 8.68939 15.4691 8.35606 15.5C8.08333 15.5 7.7803 15.5 7.50758 15.5C7.08333 15.4382 6.68939 15.3145 6.32576 15.1291C6.14394 15.0363 5.99242 14.9436 5.81061 14.8199C5.68939 14.7581 5.56818 14.6654 5.44697 14.6036C5.14394 14.4181 4.84091 14.2944 4.50758 14.2326C4.20455 14.1708 3.90152 14.1399 3.59848 14.109C3.44697 14.109 3.26515 14.109 3.11364 14.109C3.02273 14.109 2.93182 14.109 2.84091 14.0781C2.7197 14.0472 2.62879 13.9544 2.59849 13.8308C2.59849 13.769 2.59848 13.6762 2.56818 13.6144C2.56818 13.6144 2.56818 13.6144 2.56818 13.5835C2.56818 13.398 2.44697 13.2435 2.26515 13.1507C2.14394 13.0889 2.05303 13.058 1.93182 13.0271C1.7197 12.9653 1.53788 12.9343 1.32576 12.8416C1.14394 12.7798 0.992425 12.687 0.810606 12.6252C0.75 12.6252 0.719697 12.5634 0.659091 12.5325C0.628788 12.5325 0.598485 12.5016 0.568182 12.4707C0.477273 12.3779 0.477273 12.2852 0.568182 12.1925C0.628788 12.1615 0.689394 12.1306 0.75 12.0997C1.17424 11.8833 1.56818 11.6361 1.93182 11.3578C2.47727 10.9251 2.93182 10.4614 3.26515 9.87409C3.44697 9.56497 3.59849 9.22495 3.7197 8.88492C3.75 8.76127 3.7803 8.66854 3.7803 8.54489C3.7803 8.42125 3.75 8.32851 3.65909 8.23578C3.62879 8.17395 3.56818 8.14304 3.50758 8.11213C3.35606 7.98848 3.20455 7.89575 3.02273 7.7721C2.81061 7.64846 2.62879 7.4939 2.41667 7.37025C2.32576 7.30843 2.20455 7.21569 2.11364 7.15387C2.05303 7.09205 1.99242 7.03022 1.93182 6.93749C1.84091 6.78293 1.84091 6.59746 1.90152 6.4429C1.96212 6.31926 2.05303 6.22652 2.14394 6.19561C2.26515 6.13379 2.41667 6.13379 2.53788 6.1647C2.68939 6.1647 2.84091 6.25743 2.99242 6.28834C3.14394 6.35017 3.29545 6.41199 3.44697 6.47381C3.50758 6.47381 3.59849 6.53564 3.65909 6.53564C3.65909 6.53564 3.68939 6.53564 3.7197 6.53564C3.81061 6.53564 3.87121 6.50473 3.87121 6.38108C3.87121 6.28835 3.87121 6.1647 3.87121 6.07196C3.84091 5.51556 3.81061 4.95915 3.87121 4.43365C3.87121 4.09362 3.93182 3.72268 3.99242 3.38266C4.11364 2.91898 4.29546 2.48622 4.56818 2.08437C5.11364 1.3734 5.81061 0.909728 6.65909 0.662435C7.11364 0.538789 7.59848 0.476966 8.08333 0.507877C8.59848 0.507877 9.08333 0.631524 9.53788 0.816993C9.99242 1.00246 10.3864 1.24976 10.75 1.58978C11.2045 2.02255 11.5379 2.51713 11.7197 3.10445C11.8106 3.38266 11.8712 3.66086 11.9015 3.93906C11.9621 4.37183 11.9621 4.80459 11.9621 5.23735L11.9924 5.1137Z" fill="white"/>
</svg>
