<svg width="16" height="16" viewBox="0 0 16 16" fill="none" xmlns="http://www.w3.org/2000/svg">
<g clip-path="url(#clip0_3481_4657)">
<path d="M7.99967 14.6666C11.6815 14.6666 14.6663 11.6818 14.6663 7.99992C14.6663 4.31802 11.6815 1.33325 7.99967 1.33325C4.31777 1.33325 1.33301 4.31802 1.33301 7.99992C1.33301 8.91918 1.51905 9.79498 1.85555 10.5917C2.04153 11.032 2.13451 11.2522 2.14603 11.4186C2.15754 11.585 2.10857 11.768 2.01062 12.1341L1.33301 14.6666L3.86552 13.989C4.23159 13.8911 4.41463 13.8421 4.58102 13.8536C4.74741 13.8651 4.96757 13.9581 5.40791 14.1441C6.20464 14.4805 7.08041 14.6666 7.99967 14.6666Z" stroke="#e94477" stroke-linejoin="round"/>
<path d="M5.72576 8.25161L6.30639 7.53048C6.5511 7.22655 6.85359 6.94361 6.87733 6.53892C6.88326 6.43671 6.81139 5.97779 6.66753 5.05999C6.611 4.69929 6.27423 4.66675 5.98254 4.66675C5.60242 4.66675 5.41236 4.66675 5.22363 4.75295C4.98509 4.86191 4.74019 5.16829 4.68644 5.42497C4.64392 5.62805 4.67552 5.76799 4.73872 6.04787C5.00715 7.23661 5.63687 8.41061 6.61331 9.38708C7.58979 10.3635 8.76379 10.9933 9.95253 11.2617C10.2324 11.3249 10.3723 11.3565 10.5755 11.3139C10.8321 11.2602 11.1385 11.0153 11.2475 10.7767C11.3337 10.588 11.3337 10.398 11.3337 10.0179C11.3337 9.72615 11.3011 9.38941 10.9404 9.33288C10.0226 9.18901 9.56373 9.11715 9.46146 9.12308C9.05679 9.14681 8.77386 9.44928 8.46993 9.69402L7.74879 10.2746" stroke="#e94477"/>
</g>
<defs>
<clipPath id="clip0_3481_4657">
<rect width="16" height="16" fill="white"/>
</clipPath>
</defs>
</svg>
