<svg width="17" height="16" viewBox="0 0 17 16" fill="none" xmlns="http://www.w3.org/2000/svg">
<g clip-path="url(#clip0_3481_4682)">
<path fill-rule="evenodd" clip-rule="evenodd" d="M7.19056 10.0688V5.57934C8.78432 6.32929 10.0187 7.05375 11.4786 7.83481C10.2745 8.50258 8.78432 9.25183 7.19056 10.0688ZM16.0726 3.34653C15.7977 2.98432 15.3291 2.70237 14.8303 2.60903C13.364 2.33059 4.21659 2.3298 2.75113 2.60903C2.35109 2.68402 1.99487 2.86529 1.68887 3.14692C0.399515 4.34364 0.803538 10.7613 1.11432 11.8008C1.24501 12.2508 1.41396 12.5753 1.62672 12.7883C1.90085 13.07 2.27618 13.2639 2.70729 13.3508C3.91457 13.6005 10.1342 13.7402 14.8048 13.3883C15.2351 13.3133 15.616 13.1132 15.9164 12.8196C17.1085 11.6276 17.0273 4.84961 16.0726 3.34653Z" fill="white"/>
</g>
<defs>
<clipPath id="clip0_3481_4682">
<rect width="16" height="16" fill="white" transform="translate(0.799805)"/>
</clipPath>
</defs>
</svg>
