<svg width="30" height="31" viewBox="0 0 30 31" fill="none" xmlns="http://www.w3.org/2000/svg">
<path d="M3.7875 24.6625C3.7875 25.1125 3.8875 25.575 4.1 26.025C4.3125 26.475 4.5875 26.9 4.95 27.3C5.5625 27.975 6.2375 28.4625 7 28.775C7.75 29.0875 8.5625 29.25 9.4375 29.25C10.7125 29.25 12.075 28.95 13.5125 28.3375C14.95 27.725 16.3875 26.9 17.8125 25.8625C19.25 24.8125 20.6125 23.65 21.9125 22.3625C23.2 21.0625 24.3625 19.7 25.4 18.275C26.425 16.85 27.25 15.425 27.85 14.0125C28.45 12.5875 28.75 11.225 28.75 9.925C28.75 9.075 28.6 8.2625 28.3 7.5125C28 6.75 27.525 6.05 26.8625 5.425C26.0625 4.6375 25.1875 4.25 24.2625 4.25C23.9125 4.25 23.5625 4.325 23.25 4.475C22.925 4.625 22.6375 4.85 22.4125 5.175L19.5125 9.2625C19.2875 9.575 19.125 9.8625 19.0125 10.1375C18.9 10.4 18.8375 10.6625 18.8375 10.9C18.8375 11.2 18.925 11.5 19.1 11.7875C19.2625 12.075 19.5 12.375 19.8 12.675L20.75 13.6625C20.8875 13.8 20.95 13.9625 20.95 14.1625C20.95 14.2625 20.9375 14.35 20.9125 14.45C20.875 14.55 20.8375 14.625 20.8125 14.7C20.5875 15.1125 20.2 15.65 19.65 16.3C19.0875 16.95 18.4875 17.6125 17.8375 18.275C17.1625 18.9375 16.5125 19.55 15.85 20.1125C15.2 20.6625 14.6625 21.0375 14.2375 21.2625C14.175 21.2875 14.1 21.325 14.0125 21.3625C13.9125 21.4 13.8125 21.4125 13.7 21.4125C13.4875 21.4125 13.325 21.3375 13.1875 21.2L12.2375 20.2625C11.925 19.95 11.625 19.7125 11.3375 19.5625C11.05 19.3875 10.7625 19.3 10.45 19.3C10.2125 19.3 9.9625 19.35 9.6875 19.4625C9.4125 19.575 9.125 19.7375 8.8125 19.95L4.675 22.8875C4.35 23.1125 4.125 23.375 3.9875 23.6875C3.8625 24 3.7875 24.3125 3.7875 24.6625Z" stroke="#B2BBC6" stroke-width="1.8" stroke-miterlimit="10"/>
<path d="M8.125 13C8.125 12.25 8.7125 11.1 9.5875 10.1625C10.3875 9.3 11.45 8.625 12.5 8.625" stroke="#B2BBC6" stroke-width="1.8" stroke-linecap="round" stroke-linejoin="round"/>
<path d="M3.75 13C3.75 8.1625 7.6625 4.25 12.5 4.25" stroke="#B2BBC6" stroke-width="1.8" stroke-linecap="round" stroke-linejoin="round"/>
</svg>
