<svg width="72" height="72" viewBox="0 0 72 72" fill="none" xmlns="http://www.w3.org/2000/svg">
<path d="M2.59535 35.5691C2.59366 41.6185 4.18666 47.5253 7.21573 52.7316L2.30566 70.5201L20.6522 65.7469C25.7266 68.488 31.4121 69.9242 37.1897 69.9246H37.2049C56.2778 69.9246 71.8037 54.5247 71.8118 35.5962C71.8155 26.424 68.2189 17.7991 61.6843 11.3102C55.1509 4.82178 46.4616 1.24662 37.2035 1.24243C18.1282 1.24243 2.60351 16.6415 2.59563 35.5691" fill="url(#paint0_linear_161_1975)"/>
<path d="M0.300938 35.5579C0.298969 41.825 1.94906 47.9431 5.08612 53.3358L0 71.7619L19.0043 66.8177C24.2407 69.6505 30.1362 71.1441 36.1353 71.1463H36.1507C55.908 71.1463 71.9916 55.1925 72 35.5864C72.0034 26.0846 68.2774 17.1497 61.5094 10.4283C54.7405 3.70772 45.7405 0.00390698 36.1507 0C16.3901 0 0.308813 15.9516 0.300938 35.5579ZM11.6187 52.4071L10.9091 51.2894C7.92619 46.5832 6.35175 41.1446 6.354 35.5602C6.36019 19.2639 19.7263 6.00558 36.162 6.00558C44.1214 6.00893 51.6015 9.08763 57.2276 14.6735C62.8535 20.2599 65.9492 27.6859 65.9472 35.5842C65.9399 51.8805 52.5735 65.1405 36.1507 65.1405H36.1389C30.7915 65.1377 25.5471 63.7127 20.9734 61.02L19.8849 60.3795L8.60738 63.3134L11.6187 52.4071Z" fill="url(#paint1_linear_161_1975)"/>
<path d="M28.2496 20.6924C27.5785 19.2125 26.8723 19.1826 26.2342 19.1567C25.7116 19.1343 25.1142 19.136 24.5174 19.136C23.92 19.136 22.9494 19.359 22.129 20.2478C21.3078 21.1375 18.9937 23.2875 18.9937 27.6602C18.9937 32.0332 22.2036 36.2592 22.651 36.8528C23.0991 37.4452 28.8478 46.7059 37.9524 50.2685C45.5192 53.2291 47.059 52.6403 48.7013 52.4918C50.3438 52.3439 54.0011 50.3424 54.7473 48.267C55.494 46.1918 55.494 44.413 55.2701 44.0413C55.0463 43.671 54.4489 43.4486 53.5531 43.0043C52.657 42.5597 48.2532 40.4095 47.4322 40.1129C46.611 39.8165 46.0139 39.6686 45.4165 40.5585C44.8192 41.4471 43.1038 43.4486 42.581 44.0413C42.0587 44.6355 41.5358 44.7094 40.6403 44.2648C39.744 43.8189 36.8592 42.8815 33.4367 39.8539C30.7738 37.498 28.9761 34.5887 28.4535 33.6987C27.9309 32.8102 28.3975 32.3285 28.8467 31.8856C29.2492 31.4874 29.7427 30.8477 30.1911 30.3289C30.6377 29.8099 30.7867 29.4395 31.0854 28.8468C31.3844 28.2535 31.2348 27.7344 31.0112 27.2899C30.7867 26.8453 29.0461 22.4497 28.2496 20.6924Z" fill="white"/>
<defs>
<linearGradient id="paint0_linear_161_1975" x1="3477.61" y1="6929.01" x2="3477.61" y2="1.24243" gradientUnits="userSpaceOnUse">
<stop stop-color="#1FAF38"/>
<stop offset="1" stop-color="#60D669"/>
</linearGradient>
<linearGradient id="paint1_linear_161_1975" x1="3600" y1="7176.19" x2="3600" y2="0" gradientUnits="userSpaceOnUse">
<stop stop-color="#F9F9F9"/>
<stop offset="1" stop-color="white"/>
</linearGradient>
</defs>
</svg>
